<?xml version="1.0" encoding="iso-8859-1"?>
<!-- Generator: Adobe Illustrator 19.0.0, SVG Export Plug-In . SVG Version: 6.00 Build 0)  -->
<svg version="1.1" id="Layer_1" xmlns="http://www.w3.org/2000/svg" xmlns:xlink="http://www.w3.org/1999/xlink" x="0px" y="0px"
	 viewBox="0 0 512.001 512.001" style="enable-background:new 0 0 512.001 512.001;" xml:space="preserve">
<path style="fill:#F27B1D;" d="M416.238,203.893c-0.135-0.202-0.272-0.402-0.413-0.6L281.911,13.514
	C275.93,5.037,266.207,0,255.837,0c-0.042,0-0.085,0-0.129,0c-10.414,0.043-20.156,5.165-26.092,13.723L99.347,201.532
	c-42.664,58.497-49.634,135.556-18.18,201.22c31.166,65.056,92.342,105.813,163.655,109.026c3.287,0.147,6.611,0.222,9.881,0.222
	c3.273,0,6.597-0.075,9.887-0.222c70.505-3.176,131.774-43.1,163.895-106.795C461.47,339.573,456.893,264.399,416.238,203.893z"/>
<path style="fill:#FFD370;" d="M255.837,0c-0.042,0-0.085,0-0.129,0c-10.414,0.043-20.156,5.165-26.092,13.723L99.347,201.532
	c-42.664,58.497-49.634,135.556-18.18,201.22c31.166,65.056,92.342,105.813,163.655,109.026c3.287,0.147,6.611,0.222,9.881,0.222
	L255.837,0z"/>
<path style="fill:#C11D26;" d="M340.274,348.778c-0.072-0.107-0.144-0.213-0.219-0.318l-70.942-100.537
	c-3.169-4.491-8.319-7.159-13.813-7.159c-0.022,0-0.045,0-0.068,0c-5.517,0.022-10.678,2.736-13.823,7.27l-69.011,99.493
	c-22.602,30.989-26.295,71.812-9.631,106.598c16.51,34.464,48.919,56.055,86.698,57.757c1.742,0.078,3.502,0.118,5.234,0.118
	c1.733,0,3.495-0.04,5.238-0.118c37.351-1.683,69.808-22.833,86.824-56.575C364.236,420.655,361.811,380.831,340.274,348.778z"/>
<path style="fill:#F54831;" d="M255.3,240.763c-0.022,0-0.045,0-0.068,0c-5.517,0.022-10.678,2.736-13.823,7.27l-69.011,99.493
	c-22.602,30.989-26.295,71.812-9.631,106.598c16.51,34.464,48.919,56.055,86.698,57.757c1.742,0.078,3.502,0.118,5.234,0.118
	L255.3,240.763z"/>
<path style="fill:#F27B1D;" d="M294.249,437.276c-0.033-0.049-0.066-0.097-0.1-0.145l-32.478-46.027
	c-1.451-2.056-3.809-3.277-6.323-3.277c-0.01,0-0.02,0-0.031,0c-2.526,0.011-4.888,1.252-6.328,3.328l-31.594,45.549
	c-10.347,14.187-12.038,32.876-4.409,48.801c7.558,15.778,22.396,25.663,39.692,26.442c0.797,0.035,1.604,0.053,2.397,0.053
	c0.794,0,1.599-0.018,2.398-0.053c17.099-0.77,31.959-10.453,39.75-25.901C305.219,470.181,304.109,451.95,294.249,437.276z"/>
<path style="fill:#FFD370;" d="M255.347,387.825c-0.01,0-0.02,0-0.031,0c-2.526,0.011-4.888,1.252-6.328,3.328l-31.594,45.549
	c-10.347,14.187-12.038,32.876-4.409,48.801c7.558,15.778,22.396,25.663,39.692,26.442c0.797,0.035,1.604,0.053,2.397,0.053
	L255.347,387.825z"/>
<g>
</g>
<g>
</g>
<g>
</g>
<g>
</g>
<g>
</g>
<g>
</g>
<g>
</g>
<g>
</g>
<g>
</g>
<g>
</g>
<g>
</g>
<g>
</g>
<g>
</g>
<g>
</g>
<g>
</g>
</svg>
